<svg viewBox="0 0 1024 1024" xmlns="http://www.w3.org/2000/svg" id="b51a5b87-d9f9-499b-9d1d-533479d69d14"><defs><style>.a4007155-0d6e-40fc-9d7d-b7740d0651b2,.a4972278-ddbb-4419-a772-01d2c4a757e9{fill:#e61f19;}.a4007155-0d6e-40fc-9d7d-b7740d0651b2,.a45bcfe4-7ca5-4449-b29c-9dda0abb91ce{opacity:0.2;}.e199e021-cf3b-4113-b0da-229c0ef60d94{fill:#040000;}.a5ab1b70-7ce0-46a8-a707-799742c22bbd{fill:#fff;}.b523bdc5-27f7-4fd6-8da0-db457544f748{fill:#231815;}.a33ebaf2-8300-4e51-8e75-25b4ee1a31c7{fill:none;}</style></defs><title>党建1024px尺寸</title><path d="M699.6,94.73c-20.42,12.84-36.85,35.12-37.08,35.43a6.4,6.4,0,1,1-10.34-7.53c.92-1.28,15.22-20.69,34.93-34.84C617,50.71,526.08,35,420.88,61.2,196.65,117,236.6,351.61,285.44,395.33c37.25,33.34,40.41,75.85,38.39,100.47-.81,9.89-3.61,19.13-7.25,28-13.68,33.28,3.43,76.5,22.17,109.34,20.95,36.72,51.73,70.11,89.52,95.47,95.51,64.1,185.59,48.87,249.49,5-19.17-27.17-26.21-57.68-26.66-59.72a6.4,6.4,0,0,1,12.5-2.78c.1.47,6.83,29.53,24.63,54.89,50.1-38.56,81.7-94.57,83.21-139.79,4.94-147.35,49.6-117.52,68-255.93C850.1,250.59,796.88,151.75,699.6,94.73Z" class="a4007155-0d6e-40fc-9d7d-b7740d0651b2"></path><path d="M54.89,931s1.33-46.88,69.77-55.06a113.32,113.32,0,0,0,41-13.17c31.16-17.12,92.79-42.38,132.7-2.47,0,0,22.43,32,62.47,32s166.3-8.51,165.68,28.83,42.93,18.74,61.77,37.59-33.63,16.87-33.63,16.87-28.44-8-83.9-8S347.9,991,315.65,958.74s-83.87-4.28-133.88-4.28S54.89,988.87,54.89,931Z" class="e199e021-cf3b-4113-b0da-229c0ef60d94"></path><rect transform="translate(-78.08 51.35) rotate(-5.2)" height="60.5" width="36.48" y="855.36" x="508.26" class="a5ab1b70-7ce0-46a8-a707-799742c22bbd"></rect><path d="M511.07,919.53a2.14,2.14,0,0,1-2.12-1.94l-5.48-60.26A2.12,2.12,0,0,1,505.4,855l36.33-3.31a2.08,2.08,0,0,1,1.56.49,2.14,2.14,0,0,1,.76,1.44l5.48,60.26a2.13,2.13,0,0,1-1.93,2.31l-36.33,3.31Zm-3.16-60.46,5.1,56,32.08-2.91-5.1-56Z" class="e199e021-cf3b-4113-b0da-229c0ef60d94"></path><path d="M511.08,917.39s29.65-2.64,36.77-13.31c0,0,47.33,0,70,17.55a9.63,9.63,0,0,1-3.71,17l-88.28,19.8A10.4,10.4,0,0,1,513.22,949Z" class="a5ab1b70-7ce0-46a8-a707-799742c22bbd"></path><path d="M523.6,960.87a12.54,12.54,0,0,1-12.51-11.69L509,917.54a2.13,2.13,0,0,1,1.94-2.27c8-.71,29.82-4.32,35.19-12.38a2.13,2.13,0,0,1,1.77-.95h0c2,0,48.33.26,71.33,18a11.74,11.74,0,0,1,4.33,11.92,11.61,11.61,0,0,1-8.88,8.9l-88.28,19.8A12.21,12.21,0,0,1,523.6,960.87ZM513.34,919.3l2,29.59a8.28,8.28,0,0,0,10.07,7.51l88.27-19.8a7.32,7.32,0,0,0,5.66-5.66,7.4,7.4,0,0,0-2.78-7.62c-20-15.42-60.56-17-67.66-17.09C541.59,915.27,520.17,918.49,513.34,919.3Z" class="e199e021-cf3b-4113-b0da-229c0ef60d94"></path><rect transform="translate(488.91 1111.12) rotate(175.57)" height="60.5" width="36.48" y="534.77" x="204.72" class="a5ab1b70-7ce0-46a8-a707-799742c22bbd"></rect><path d="M207.12,598.72a2.15,2.15,0,0,1-1.39-.51,2.12,2.12,0,0,1-.74-1.46l-4.68-60.32a2.14,2.14,0,0,1,2-2.29l36.36-2.82a2.2,2.2,0,0,1,1.56.51,2.16,2.16,0,0,1,.74,1.45l4.67,60.33a2.14,2.14,0,0,1-2,2.29l-36.37,2.82Zm-2.39-60.49,4.35,56.07,32.11-2.49-4.34-56.07Z" class="e199e021-cf3b-4113-b0da-229c0ef60d94"></path><path d="M238.81,533.45s-29.69,2.24-36.95,12.82c0,0-47.33-.68-69.78-18.49a9.62,9.62,0,0,1,3.94-17l88.53-18.62a10.4,10.4,0,0,1,12.54,9.61Z" class="a5ab1b70-7ce0-46a8-a707-799742c22bbd"></path><path d="M201.86,548.41h0c-2,0-48.32-.91-71.08-19a11.76,11.76,0,0,1,4.83-20.75l88.54-18.62a12.54,12.54,0,0,1,15.1,11.59l1.72,31.66a2.14,2.14,0,0,1-2,2.25c-8,.6-29.88,3.92-35.35,11.9A2.15,2.15,0,0,1,201.86,548.41Zm24.84-54.33a8.27,8.27,0,0,0-1.71.17l-88.53,18.62a7.31,7.31,0,0,0-5.73,5.59,7.39,7.39,0,0,0,2.67,7.65c19.79,15.69,60.33,17.76,67.42,18,7.45-9,28.91-11.88,35.75-12.59L235,501.9a8.26,8.26,0,0,0-8.26-7.82Z" class="e199e021-cf3b-4113-b0da-229c0ef60d94"></path><path d="M484.7,528.69s77,33.84,87.85,326.55c0,0-68.07,24.38-102.25-9.81,0,0,14.86-128-62.42-229.55,0,0-200.8,312.3-224.83-44.48l86.31-13.35,6.22,72.07S304.06,522.46,345,513.56,484.7,528.69,484.7,528.69Z" class="e199e021-cf3b-4113-b0da-229c0ef60d94"></path><path d="M655.66,331.21l111.83-41.8c17.86,3.75,22.08-3,29-7,1.88-1.07,14.64-4.67,16.79-4.88,6.39-.6,14.87-4.1,15.32-8.53.37-3.52-3.77-4.36-3.77-4.36s5.47-1.7,5.8-4.73c.64-5.87-6.55-5-6.55-5a6.88,6.88,0,0,0,5.27-6.4c.6-5.83-7.79-4-7.79-4s7.06-4.06,1.16-11.31c-7.6-9.33-72.79,26.76-72.79,26.76L645.1,292.83l-47.93,11.49s-3.72,34.85-2,37S655.66,331.21,655.66,331.21Z" class="a5ab1b70-7ce0-46a8-a707-799742c22bbd"></path><path d="M596.88,343.54c-2.63,0-3-.49-3.34-.88-.63-.77-2.31-2.83,1.51-38.57a2.14,2.14,0,0,1,1.63-1.84l47.92-11.5L749.07,258c15.88-8.79,67.22-36.05,75.28-26.13,2.3,2.82,3.2,5.63,2.7,8.35a7.83,7.83,0,0,1-.69,2.08,6.77,6.77,0,0,1,3.39,1.53,5.49,5.49,0,0,1,1.7,4.92,9.87,9.87,0,0,1-1.89,5,6,6,0,0,1,1.51,1.09,6.2,6.2,0,0,1,1.66,5.33,6.83,6.83,0,0,1-3.39,4.72,5.44,5.44,0,0,1,1.37,4.36c-.62,6.06-10.66,9.81-17.25,10.44-2.11.2-14.47,3.77-15.93,4.61-1.26.71-2.43,1.53-3.6,2.35-5.33,3.73-11.36,7.95-26.27,5L656.41,333.21a1.92,1.92,0,0,1-.32.09C616.17,341.62,602.1,343.54,596.88,343.54Zm2.26-37.5c-1.47,14.07-2.6,29.21-2.22,33.41,6-.07,33.55-5.17,58.15-10.29l111.67-41.75a2.1,2.1,0,0,1,1.19-.09c13.55,2.84,18.41-.55,23.55-4.15,1.29-.9,2.56-1.79,3.94-2.57,2.17-1.24,15.12-4.91,17.64-5.15,6.36-.6,13.13-3.95,13.4-6.63.16-1.51-1.87-2-2.1-2.05a2.14,2.14,0,0,1-.19-4.13c2-.61,4.22-2,4.32-2.92.14-1.28-.29-1.7-.42-1.84-.85-.84-2.91-.92-3.77-.82a2.13,2.13,0,0,1-.61-4.22c.29-.06,3.13-.75,3.52-4.52.09-.95-.2-1.21-.31-1.31-.88-.8-3.46-.71-4.92-.41a2.13,2.13,0,0,1-1.5-3.93,5.54,5.54,0,0,0,2.38-3.26c.25-1.43-.36-3.06-1.82-4.85-4-4.92-39.49,10.33-70.09,27.27a2,2,0,0,1-.4.17L645.74,294.86ZM596,339.4m59.64-8.19h0Z" class="e199e021-cf3b-4113-b0da-229c0ef60d94"></path><path d="M773.14,279.53a31,31,0,0,1-3.13-.16A2.14,2.14,0,0,1,768.1,277a2.17,2.17,0,0,1,2.34-1.91c5,.53,8.8-.33,11.3-2.53a9.84,9.84,0,0,0,3.14-6.36,2.12,2.12,0,0,1,1.17-1.84c1.14-.58,3.14-1.42,5.42-2.36,4-1.67,9.47-4,11.14-5.32a1.94,1.94,0,0,0,.81-2.36c-.4-.77-1.73-1.4-4.17-.69a73.74,73.74,0,0,1-15.82,2.85,2.14,2.14,0,0,1-.19-4.27,69.9,69.9,0,0,0,14.81-2.67c4.91-1.43,8,.6,9.15,2.79a6.18,6.18,0,0,1-1.89,7.66c-2,1.62-6.51,3.57-12.2,5.94-1.59.66-3,1.27-4.12,1.76a14,14,0,0,1-4.44,8.08C781.73,278.28,777.9,279.53,773.14,279.53Z" class="e199e021-cf3b-4113-b0da-229c0ef60d94"></path><path d="M803.77,253.58a2.13,2.13,0,0,1-.78-4.12l17.77-6.93a2.14,2.14,0,1,1,1.55,4l-17.77,6.93A2.09,2.09,0,0,1,803.77,253.58Z" class="e199e021-cf3b-4113-b0da-229c0ef60d94"></path><path d="M787.39,270a2.14,2.14,0,0,1-.71-4.15l36.67-12.89a2.13,2.13,0,1,1,1.41,4l-36.66,12.9A2.16,2.16,0,0,1,787.39,270Z" class="e199e021-cf3b-4113-b0da-229c0ef60d94"></path><path d="M803.68,273.05a2.13,2.13,0,0,1-.6-4.18l21.12-6.24a2.13,2.13,0,0,1,1.21,4.09L804.29,273A2.2,2.2,0,0,1,803.68,273.05Z" class="e199e021-cf3b-4113-b0da-229c0ef60d94"></path><path d="M529.35,282.87h38.4c12.8,0,35.79-8.53,35.79-8.53l-10.19,29.87L572,312.74l-21.34-12.8Z" class="e199e021-cf3b-4113-b0da-229c0ef60d94"></path><path d="M618.6,281.94l20.19,68c1.74,6.09-2.18,12.55-8.76,14.44l-48,10.83c-23.45,6.72-47.5-5.44-53.72-27.16l-1.79-6.25c-6.22-21.71,7.75-44.76,31.21-51.47l45.77-16C610.11,272.44,616.86,275.85,618.6,281.94Z" class="e199e021-cf3b-4113-b0da-229c0ef60d94"></path><path d="M362.1,415.16c-20.92,26.17-37.76,68.5-45.47,89.91a16.74,16.74,0,0,0,7.75,20.35c79.68,43.39,151.54,40.84,175,38.48a16.39,16.39,0,0,0,12.26-7.47c43.31-68.76,47.58-158.36,47.58-158.36,1.63-22.91,2-43.32,1.86-59.76a67,67,0,0,0-65.4-66.38c-4.32-.1-9-.15-14.15-.3-145.41-4-143.65,135.84-143.65,135.84" class="a5ab1b70-7ce0-46a8-a707-799742c22bbd"></path><path d="M475.38,567.17c-34.59,0-90.78-6.52-152-39.88a19,19,0,0,1-8.72-22.94c8.13-22.58,24.89-64.37,45.8-90.52a2.14,2.14,0,0,1,3.34,2.67c-20.53,25.66-37.09,67-45.13,89.29a14.71,14.71,0,0,0,6.76,17.76c77.92,42.43,147.47,40.87,173.77,38.23a14.33,14.33,0,0,0,10.67-6.49C552.35,487.79,557,398.86,557.09,398c1.42-19.9,2-40,1.86-59.64a64.62,64.62,0,0,0-63.32-64.26l-5.56-.12c-2.71-.05-5.57-.1-8.6-.18-43.29-1.22-77.57,10.39-102,34.42C339.72,347.38,340,406.85,340,407.45a2.15,2.15,0,0,1-2.11,2.16h0a2.14,2.14,0,0,1-2.14-2.11c0-.62-.29-61.9,40.76-102.35,25.27-24.88,60.61-36.87,105.09-35.65,3,.08,5.86.14,8.55.19l5.59.11a68.87,68.87,0,0,1,67.49,68.49c.18,19.81-.45,40-1.88,59.93,0,.85-4.78,90.91-47.89,159.34A18.62,18.62,0,0,1,499.59,566,241,241,0,0,1,475.38,567.17Z" class="e199e021-cf3b-4113-b0da-229c0ef60d94"></path><path d="M449.83,214h18.56a0,0,0,0,1,0,0v31.13a0,0,0,0,1,0,0H449.83a15.56,15.56,0,0,1-15.56-15.56v0A15.56,15.56,0,0,1,449.83,214Z" class="a5ab1b70-7ce0-46a8-a707-799742c22bbd"></path><path d="M468.39,247.22H449.1a17,17,0,0,1-17-17V228.8a17,17,0,0,1,17-17h19.29a2.14,2.14,0,0,1,2.14,2.14v31.12A2.13,2.13,0,0,1,468.39,247.22ZM449.1,216.1a12.72,12.72,0,0,0-12.7,12.7v1.46A12.72,12.72,0,0,0,449.1,243h17.16V216.1Z" class="e199e021-cf3b-4113-b0da-229c0ef60d94"></path><path transform="translate(1133.22 459.06) rotate(180)" d="M560.36,214h23.32a0,0,0,0,1,0,0v31.13a0,0,0,0,1,0,0H562.42a12.87,12.87,0,0,1-12.87-12.87v-7.44A10.81,10.81,0,0,1,560.36,214Z" class="a5ab1b70-7ce0-46a8-a707-799742c22bbd"></path><path d="M568.84,247.22H549.55a2.13,2.13,0,0,1-2.13-2.13V214a2.13,2.13,0,0,1,2.13-2.14h19.29a17,17,0,0,1,17,17v1.46A17,17,0,0,1,568.84,247.22ZM551.68,243h17.16a12.71,12.71,0,0,0,12.7-12.7V228.8a12.71,12.71,0,0,0-12.7-12.7H551.68Z" class="e199e021-cf3b-4113-b0da-229c0ef60d94"></path><ellipse transform="translate(128.5 750.86) rotate(-83.5)" ry="35.64" rx="15.99" cy="303.44" cx="484.89" class="e199e021-cf3b-4113-b0da-229c0ef60d94"></ellipse><path d="M477.83,281.57,468.94,304s17.08,14.3,36.3,5.64l10.23-23.08Z" class="a5ab1b70-7ce0-46a8-a707-799742c22bbd"></path><path d="M492.29,314.59c-13.82,0-24.15-8.48-24.72-8.95a2.14,2.14,0,0,1-.61-2.42l8.88-22.43a2.15,2.15,0,0,1,2.27-1.33l37.64,5a2.15,2.15,0,0,1,1.58,1.07,2.11,2.11,0,0,1,.09,1.91L507.19,310.5a2.09,2.09,0,0,1-1.07,1.08A33.26,33.26,0,0,1,492.29,314.59Zm-20.76-11.32c4,2.82,17.45,10.89,32.1,4.74l8.74-19.71-33.17-4.39Z" class="e199e021-cf3b-4113-b0da-229c0ef60d94"></path><path d="M511,142.57h0a53.48,53.48,0,0,1,53.48,53.48v47.62a53,53,0,0,1-53,53h-.86a53,53,0,0,1-53-53V196.05A53.48,53.48,0,0,1,511,142.57Z" class="a5ab1b70-7ce0-46a8-a707-799742c22bbd"></path><path d="M512.87,298.85h-3.65a53.85,53.85,0,0,1-53.79-53.79v-49a55.61,55.61,0,1,1,111.22,0v49A53.85,53.85,0,0,1,512.87,298.85ZM511,144.71a51.4,51.4,0,0,0-51.34,51.34v49a49.57,49.57,0,0,0,49.52,49.52h3.65a49.57,49.57,0,0,0,49.51-49.52v-49A51.4,51.4,0,0,0,511,144.71Z" class="e199e021-cf3b-4113-b0da-229c0ef60d94"></path><path d="M443.08,227.68s9.64-2.1,12.65,4" class="a5ab1b70-7ce0-46a8-a707-799742c22bbd"></path><path d="M455.73,233.86a2.12,2.12,0,0,1-1.91-1.2c-2.23-4.56-10.2-2.91-10.29-2.89a2.15,2.15,0,0,1-2.53-1.64,2.13,2.13,0,0,1,1.63-2.53c.46-.1,11.31-2.38,15,5.18a2.14,2.14,0,0,1-1,2.86A2.09,2.09,0,0,1,455.73,233.86Z" class="e199e021-cf3b-4113-b0da-229c0ef60d94"></path><path d="M574.87,227.68a18.35,18.35,0,0,0-7.33.07" class="a5ab1b70-7ce0-46a8-a707-799742c22bbd"></path><path d="M567.54,229.88a2.14,2.14,0,0,1-.51-4.21,20.72,20.72,0,0,1,8.3-.07,2.13,2.13,0,0,1,1.62,2.53,2.15,2.15,0,0,1-2.53,1.64,16.43,16.43,0,0,0-6.36,0A2.31,2.31,0,0,1,567.54,229.88Z" class="e199e021-cf3b-4113-b0da-229c0ef60d94"></path><path d="M491,244.39a22.19,22.19,0,1,1,22.18-22.18A22.21,22.21,0,0,1,491,244.39Zm0-40.1a17.92,17.92,0,1,0,17.92,17.92A17.94,17.94,0,0,0,491,204.29Z" class="e199e021-cf3b-4113-b0da-229c0ef60d94"></path><path d="M545.28,244.39a22.19,22.19,0,1,1,22.19-22.18A22.21,22.21,0,0,1,545.28,244.39Zm0-40.1a17.92,17.92,0,1,0,17.92,17.92A17.93,17.93,0,0,0,545.28,204.29Z" class="e199e021-cf3b-4113-b0da-229c0ef60d94"></path><path d="M493.84,500.05H419.22a20.06,20.06,0,0,1-15.14-6.74,17.86,17.86,0,0,1-4.4-14.27l15.11-114.58c1.23-9.34,9.63-16.37,19.53-16.37h74.62a20.07,20.07,0,0,1,15.14,6.73,17.89,17.89,0,0,1,4.4,14.28L513.37,483.68C512.14,493,503.74,500.05,493.84,500.05ZM434.32,352.36c-7.77,0-14.35,5.44-15.3,12.65L403.91,479.6a13.65,13.65,0,0,0,3.38,10.9,15.79,15.79,0,0,0,11.93,5.28h74.62c7.77,0,14.35-5.44,15.3-12.66l15.11-114.58a13.65,13.65,0,0,0-3.38-10.9,15.79,15.79,0,0,0-11.93-5.28Z" class="e199e021-cf3b-4113-b0da-229c0ef60d94"></path><path d="M403.65,447.73c0-7.61,2.81-32.43,2.81-32.43l-44.2-5" class="a5ab1b70-7ce0-46a8-a707-799742c22bbd"></path><path d="M403.65,449.86a2.13,2.13,0,0,1-2.13-2.13c0-6.41,1.91-24.34,2.59-30.56L362,412.38a2.13,2.13,0,0,1,.48-4.24l44.2,5a2.12,2.12,0,0,1,1.88,2.35c0,.25-2.8,24.8-2.8,32.2A2.13,2.13,0,0,1,403.65,449.86Z" class="e199e021-cf3b-4113-b0da-229c0ef60d94"></path><path d="M359.56,410.26s-6.37,31.45-6.34,56.6a23.7,23.7,0,0,0,24.41,23.76c25.78-.85,69.09-15.39,126.37-38.51l20.79-7.79a37.29,37.29,0,0,0,15.91-10.57c3.8-4.4,7.36-9,1.51-11.5,0,0,8.24-8.85-1-11,0,0,4.5-9.65-6-7.8,0,0-1.31-9-8.74-4.38-7,4.36-11.71,11.89-22.29,15.41,0,0,7-9.6,2-12.72s-9.79,2.92-17.13,19.31c0,0-1.34,4.63-4.22,5.26-2.61.57-55,10.87-92.07,26.59" class="a5ab1b70-7ce0-46a8-a707-799742c22bbd"></path><path d="M376.83,492.77A25.48,25.48,0,0,1,359,485.54a25.8,25.8,0,0,1-7.92-18.67c0-25.09,6.32-56.72,6.39-57a2.11,2.11,0,0,1,2.51-1.66,2.14,2.14,0,0,1,1.67,2.51c-.07.31-6.32,31.54-6.3,56.18a21.58,21.58,0,0,0,22.21,21.63c23.07-.76,61.81-12.59,125.64-38.36l20.85-7.81a35.27,35.27,0,0,0,15-10c1.44-1.66,4.42-5.11,4.06-6.68-.15-.66-1.18-1.2-1.78-1.46a2.1,2.1,0,0,1-1.24-1.52,2.15,2.15,0,0,1,.52-1.89c1.38-1.49,3.21-4.38,2.75-5.87-.26-.87-1.59-1.35-2.65-1.6a2.16,2.16,0,0,1-1.43-1.14,2.13,2.13,0,0,1,0-1.83c.6-1.33,1.1-3.6.47-4.42-.47-.62-2-.76-4.12-.39a2.08,2.08,0,0,1-1.62-.37,2.14,2.14,0,0,1-.87-1.42c-.15-1-.85-3.16-2.07-3.72-1-.46-2.41.21-3.43.84a51.73,51.73,0,0,0-6.78,5.4c-4.12,3.67-8.79,7.83-16,10.22a2.13,2.13,0,0,1-2.39-3.28c1.52-2.1,3.79-6.28,3.34-8.56a1.52,1.52,0,0,0-.74-1.09,2.25,2.25,0,0,0-2-.37c-3.79,1.16-8.69,11.25-12,18.74-.07.32-1.71,5.6-5.71,6.47l-1,.21c-16.84,3.48-59.39,13-90.71,26.27A2.14,2.14,0,0,1,392,451c31.67-13.43,74.55-23,91.51-26.52l.95-.19c1.05-.23,2.2-2.35,2.63-3.78,6.29-14.11,10.41-20,14.78-21.35a6.52,6.52,0,0,1,5.52.83,5.77,5.77,0,0,1,2.67,3.9,11.3,11.3,0,0,1-.89,6.08A53.6,53.6,0,0,0,518,403.1a53.68,53.68,0,0,1,7.37-5.84c2.78-1.74,5.3-2.1,7.48-1.09a8.16,8.16,0,0,1,4,4.94c2.92-.16,5,.57,6.28,2.23,1.55,2,1.28,4.7.8,6.58a6.15,6.15,0,0,1,3.54,3.77c.87,2.87-.73,6-2.11,8a5.52,5.52,0,0,1,1.93,3c.78,3.4-1.92,6.87-5,10.42a39.38,39.38,0,0,1-16.8,11.19l-20.76,7.78c-64.26,25.94-103.46,37.86-127,38.64Z" class="e199e021-cf3b-4113-b0da-229c0ef60d94"></path><path d="M535.26,403.45s.36,8.16-19.83,17" class="a5ab1b70-7ce0-46a8-a707-799742c22bbd"></path><path d="M515.43,422.55a2.13,2.13,0,0,1-.86-4.08c18.11-7.91,18.56-14.94,18.56-15a2.05,2.05,0,0,1,2.14-2.1,2.1,2.1,0,0,1,2.13,2c0,1-.19,9.88-21.12,19A2,2,0,0,1,515.43,422.55Z" class="e199e021-cf3b-4113-b0da-229c0ef60d94"></path><path d="M541.69,409.26s-6.77,14.92-23.13,18.54" class="a5ab1b70-7ce0-46a8-a707-799742c22bbd"></path><path d="M518.56,429.94a2.14,2.14,0,0,1-.46-4.22c15.07-3.34,21.59-17.2,21.65-17.34a2.13,2.13,0,1,1,3.88,1.76c-.29.65-7.41,15.94-24.61,19.75A2.4,2.4,0,0,1,518.56,429.94Z" class="e199e021-cf3b-4113-b0da-229c0ef60d94"></path><path d="M543.39,420.62s-10.42,12.76-23.08,14.3" class="a5ab1b70-7ce0-46a8-a707-799742c22bbd"></path><path d="M520.31,437.05a2.13,2.13,0,0,1-.26-4.25c11.68-1.42,21.59-13.41,21.69-13.53A2.13,2.13,0,1,1,545,422c-.45.54-11.11,13.44-24.47,15.06A1.14,1.14,0,0,1,520.31,437.05Z" class="e199e021-cf3b-4113-b0da-229c0ef60d94"></path><path d="M679.33,541a2.14,2.14,0,0,1-1.85-3.19l18.45-32.49a2.13,2.13,0,0,1,3.71,2.11l-18.45,32.49A2.13,2.13,0,0,1,679.33,541Z" class="e199e021-cf3b-4113-b0da-229c0ef60d94"></path><path d="M706.5,530a2.08,2.08,0,0,1-.6-.09L670,519.46a2.14,2.14,0,1,1,1.2-4.1l35.87,10.45a2.12,2.12,0,0,1,1.46,2.64A2.14,2.14,0,0,1,706.5,530Z" class="e199e021-cf3b-4113-b0da-229c0ef60d94"></path><path d="M205.23,384.82c-4.78,0-9.18-3.36-13.08-10-3.08-5.25-6.24-8-9.13-8.08H183c-3.63,0-6.73,4.3-7.89,6.15a29.06,29.06,0,0,1-6.45,7.6c-7.45,5.85-15.36,4.85-21.69-2.76-3.14-3.77-6.14-5.68-8.92-5.68s-4.93,1.92-6.27,3.52c-3,3.58-5.88,5.9-8.88,7.09-4.31,1.71-10.75,2.37-17.06-4.22-2.49-2.6-5-3.83-7.56-3.58-4.91.44-8.62,6-8.65,6A2.13,2.13,0,0,1,86,378.57c.19-.3,4.84-7.3,11.81-7.95,3.87-.36,7.61,1.28,11.06,4.88,3.74,3.91,7.91,5,12.39,3.21,2.32-.93,4.67-2.84,7.18-5.86,1.93-2.3,5.14-5.05,9.55-5.05,4.11,0,8.21,2.42,12.2,7.21,4.92,5.91,10.08,6.61,15.77,2.14a24.9,24.9,0,0,0,5.47-6.51c1.92-3.06,6-8.16,11.51-8.16h.13c4.53.07,8.81,3.49,12.75,10.19,3.1,5.26,6.42,7.85,9.46,7.88,4.56,0,8.75-5.74,10-7.93A2.14,2.14,0,0,1,219,374.7c-.23.41-5.68,10-13.65,10.12Z" class="e199e021-cf3b-4113-b0da-229c0ef60d94"></path><path d="M821.72,627.34c-4.78,0-9.18-3.36-13.08-10-3.08-5.24-6.24-8-9.13-8.08-3.59.07-6.79,4.29-8,6.16A29.16,29.16,0,0,1,785.1,623c-7.45,5.85-15.35,4.85-21.69-2.76-3.14-3.76-6.14-5.68-8.91-5.68h0c-2.75,0-4.92,1.92-6.26,3.52-3,3.58-5.89,5.9-8.89,7.1-4.31,1.7-10.75,2.36-17.05-4.22-2.5-2.61-5.09-3.85-7.58-3.58-4.87.45-8.6,6-8.64,6a2.13,2.13,0,1,1-3.57-2.33c.19-.3,4.84-7.3,11.82-7.94,3.88-.35,7.6,1.28,11,4.88,3.74,3.9,7.91,5,12.39,3.2,2.33-.92,4.68-2.84,7.19-5.86,1.92-2.3,5.14-5,9.54-5h0c4.1,0,8.2,2.43,12.19,7.21,4.92,5.91,10.08,6.62,15.78,2.14a25.29,25.29,0,0,0,5.47-6.51c1.93-3.08,5.94-8.15,11.64-8.15,4.52.06,8.81,3.49,12.74,10.18,3.08,5.23,6.25,7.88,9.41,7.88h0c4.57,0,8.75-5.74,10-7.93a2.14,2.14,0,0,1,3.73,2.08c-.23.41-5.68,10-13.65,10.12Z" class="e199e021-cf3b-4113-b0da-229c0ef60d94"></path><path d="M821.72,601.74c-4.78,0-9.18-3.36-13.08-10-3.08-5.24-6.24-8-9.13-8.08-3.59,0-6.79,4.29-8,6.16a29.16,29.16,0,0,1-6.45,7.59c-7.45,5.85-15.35,4.86-21.69-2.76-3.14-3.76-6.14-5.68-8.91-5.68h0c-2.75,0-4.92,1.92-6.26,3.52-3,3.58-5.89,5.9-8.89,7.1-4.31,1.7-10.75,2.36-17.05-4.22-2.5-2.61-5.09-3.84-7.58-3.58-4.87.45-8.6,6-8.64,6a2.13,2.13,0,1,1-3.57-2.33c.19-.3,4.84-7.3,11.82-7.94,3.88-.35,7.6,1.28,11,4.88,3.74,3.9,7.91,5,12.39,3.2,2.33-.92,4.68-2.84,7.19-5.86,1.92-2.3,5.14-5,9.54-5h0c4.1,0,8.2,2.43,12.19,7.21,4.92,5.91,10.08,6.62,15.78,2.14a25.29,25.29,0,0,0,5.47-6.51c1.93-3.08,5.94-8.15,11.64-8.15,4.52.06,8.81,3.49,12.74,10.18,3.1,5.27,6.45,7.89,9.46,7.88,4.57,0,8.75-5.74,10-7.93a2.14,2.14,0,0,1,3.73,2.08c-.23.41-5.68,10-13.65,10.12Z" class="e199e021-cf3b-4113-b0da-229c0ef60d94"></path><path d="M205.23,410.13c-4.78,0-9.18-3.36-13.08-10-3.08-5.24-6.24-8-9.13-8.08H183c-3.63,0-6.73,4.3-7.89,6.16a29.22,29.22,0,0,1-6.45,7.6c-7.45,5.85-15.36,4.85-21.69-2.76-3.14-3.77-6.14-5.68-8.92-5.68s-4.93,1.91-6.27,3.52c-3,3.57-5.88,5.89-8.88,7.09-4.31,1.7-10.75,2.36-17.06-4.22-2.49-2.61-5-3.82-7.56-3.59-4.91.45-8.62,6-8.65,6A2.13,2.13,0,0,1,86,403.88c.19-.3,4.84-7.3,11.81-7.94,3.87-.36,7.61,1.28,11.06,4.88,3.74,3.9,7.91,5,12.39,3.2,2.32-.92,4.67-2.84,7.18-5.85,1.93-2.31,5.14-5.06,9.55-5.06,4.11,0,8.21,2.43,12.2,7.22,4.92,5.91,10.08,6.6,15.77,2.13a24.9,24.9,0,0,0,5.47-6.51c1.94-3.08,6.18-8.28,11.64-8.15,4.53.06,8.81,3.49,12.75,10.18,3.08,5.23,6.24,7.89,9.4,7.89h.06c4.56-.05,8.75-5.75,10-7.94A2.14,2.14,0,0,1,219,400c-.23.41-5.68,10-13.65,10.12Z" class="e199e021-cf3b-4113-b0da-229c0ef60d94"></path><path d="M413.34,424.55l-70.35-9c-6.28-.87-10.61-7.06-9.68-13.84l9.46-48.26c3.32-24.16,24.16-41.25,46.53-38.17l6.44.88c22.38,3.08,37.82,25.17,34.5,49.33l-3.84,48.34C425.46,420.62,419.62,425.41,413.34,424.55Z" class="e199e021-cf3b-4113-b0da-229c0ef60d94"></path><path d="M500.45,188.67a2.15,2.15,0,0,1-1.51-.62c-6.39-6.38-16.94-4.67-17.05-4.65a2.13,2.13,0,1,1-.72-4.2c.52-.09,12.82-2.14,20.79,5.83a2.14,2.14,0,0,1,0,3A2.17,2.17,0,0,1,500.45,188.67Z" class="e199e021-cf3b-4113-b0da-229c0ef60d94"></path><path d="M530.88,188.67a2.17,2.17,0,0,1-1.51-.62,2.14,2.14,0,0,1,0-3c8-8,20.27-5.92,20.8-5.83a2.13,2.13,0,0,1-.73,4.2c-.11,0-10.67-1.74-17.05,4.65A2.15,2.15,0,0,1,530.88,188.67Z" class="e199e021-cf3b-4113-b0da-229c0ef60d94"></path><circle r="4.52" cy="214.35" cx="478.41" class="e199e021-cf3b-4113-b0da-229c0ef60d94"></circle><circle r="4.52" cy="214.86" cx="533.36" class="e199e021-cf3b-4113-b0da-229c0ef60d94"></circle><path d="M482.75,246.68a2.4,2.4,0,0,1-.46-.05l-14.41-3.23a2.14,2.14,0,0,1,.93-4.17l14.41,3.23a2.14,2.14,0,0,1-.47,4.22Z" class="e199e021-cf3b-4113-b0da-229c0ef60d94"></path><path d="M552.53,250.45a2.13,2.13,0,0,1-.46-4.21l14.4-3.23a2.13,2.13,0,0,1,.94,4.16L553,250.4A1.88,1.88,0,0,1,552.53,250.45Z" class="e199e021-cf3b-4113-b0da-229c0ef60d94"></path><path d="M516.46,236.7a7.3,7.3,0,0,1-1.13-.1l.14-2.14.41-2.09a3,3,0,0,0,3-1.21,3.14,3.14,0,0,0,.32-3.32,13.24,13.24,0,0,1-1.21-4.3,2.13,2.13,0,0,1,4.25-.38,9,9,0,0,0,.78,2.77,7.44,7.44,0,0,1-.71,7.76A7.26,7.26,0,0,1,516.46,236.7Z" class="e199e021-cf3b-4113-b0da-229c0ef60d94"></path><path d="M441.29,90.37a13.89,13.89,0,0,0-.52-1.35c-3.77-8.32-14-11.81-22.89-7.79a18.78,18.78,0,0,0-5.68,4c-7-2.53-15.71-2.23-23.9,1.48-8.44,3.82-14.49,10.43-17.09,17.63a26.15,26.15,0,0,0-18.94,1.14A25.43,25.43,0,0,0,337,128.13a19.22,19.22,0,0,0-7.51,1.7c-9.06,4.11-13.42,14.44-10.75,24.19-5.18,5.87-6.95,13.82-3.84,20.68,3.58,7.89,12.5,11.9,21.66,10.48a21.78,21.78,0,0,0,36.95-12.25,24.45,24.45,0,0,0,26.17-15.32,24.73,24.73,0,0,0,23,1.62,24.26,24.26,0,0,0,12.58-13.59,31,31,0,0,0,15.9-2.63c14.81-6.72,21.76-23.32,15.52-37.09C462.17,96,452.1,90.33,441.29,90.37Z" class="e199e021-cf3b-4113-b0da-229c0ef60d94"></path><path d="M544.11,126a2.17,2.17,0,0,1-.92-.21,2.13,2.13,0,0,1-1-2.84l7.55-15.8a2.14,2.14,0,1,1,3.85,1.85L546,124.74A2.15,2.15,0,0,1,544.11,126Z" class="e199e021-cf3b-4113-b0da-229c0ef60d94"></path><path d="M551.29,133.81a2.14,2.14,0,0,1-1.14-3.95l28.26-17.61a2.13,2.13,0,0,1,2.26,3.62l-28.26,17.61A2.11,2.11,0,0,1,551.29,133.81Z" class="e199e021-cf3b-4113-b0da-229c0ef60d94"></path><path d="M561.58,144.71a2.14,2.14,0,0,1-.58-4.19L577.31,136a2.13,2.13,0,1,1,1.15,4.11l-16.31,4.56A2.24,2.24,0,0,1,561.58,144.71Z" class="e199e021-cf3b-4113-b0da-229c0ef60d94"></path><path d="M584.26,191.7a2.14,2.14,0,0,1-1.51-.63c-3.25-3.25-4.58-6.49-4-9.63a9.92,9.92,0,0,1,4-5.79,8.33,8.33,0,0,1-1.64-3c-1-3.28-.12-7.12,1-10.18-7.08.66-14.61-6-15-6.32a2.13,2.13,0,0,1,2.84-3.18c.1.08,10,8.76,15.09,3.65a2.13,2.13,0,0,1,3.33,2.61c-1.26,2.1-4.29,8.38-3.15,12.2a4,4,0,0,0,2.25,2.56,2.13,2.13,0,0,1-.1,3.89c-1.09.46-4,2.14-4.44,4.44-.33,1.65.61,3.59,2.79,5.77a2.14,2.14,0,0,1-1.51,3.64Z" class="e199e021-cf3b-4113-b0da-229c0ef60d94"></path><path d="M473.56,375.78A25.59,25.59,0,0,1,448,350.22v-2.13h51.12v2.13A25.58,25.58,0,0,1,473.56,375.78Zm-21.19-23.42a21.3,21.3,0,0,0,42.38,0Z" class="e199e021-cf3b-4113-b0da-229c0ef60d94"></path><path d="M456.07,351.6h0a15.85,15.85,0,0,1,15.85-15.85h3.28a15.85,15.85,0,0,1,15.85,15.85h-35Z" class="e199e021-cf3b-4113-b0da-229c0ef60d94"></path><g class="a45bcfe4-7ca5-4449-b29c-9dda0abb91ce"><path d="M592,867.41S604.38,824,635.46,820c17.08-2.22,18.17,6.11,17.47,12-.72,6.09-6.9,10.15-12.92,9C631,839.16,614.08,841.07,592,867.41Z" class="a4972278-ddbb-4419-a772-01d2c4a757e9"></path><path d="M599.19,892.92s21.52-10.08,33-10.21c21.93-.26,24.63,15.82,11.71,13.72S621.11,883.91,599.19,892.92Z" class="a4972278-ddbb-4419-a772-01d2c4a757e9"></path><path d="M180.63,830.65s-17.5-51.77-30.44-28.83C141.38,817.43,164.11,803.42,180.63,830.65Z" class="a4972278-ddbb-4419-a772-01d2c4a757e9"></path><path d="M171.67,846.41S139,819,133.62,836c-1.14,3.6-.6,14.12,16.92,10.91C155.84,845.94,159.05,843.81,171.67,846.41Z" class="a4972278-ddbb-4419-a772-01d2c4a757e9"></path></g><path d="M829,350.76c-16,0-33.78-9.48-34.7-10a2.13,2.13,0,0,1-.87-2.89,2.16,2.16,0,0,1,2.9-.86c.26.14,26.79,14.32,42.47,7.73a16.51,16.51,0,0,0,9-9.11c-5.8-1.39-10.75-5.15-12.86-9-1.5-2.71-1.54-5.42-.11-7.43,2.2-3.09,4.64-4.77,7.24-5,2.42-.17,4.75.84,7,3.09a16.57,16.57,0,0,1,4.37,14.55c6.62-.43,12-5.31,15.62-14.11a2.14,2.14,0,0,1,2.29-1.3c3.54.53,14.09,1,16.15-3.69,3.23-7.26,5.25-11.3,5.25-11.3a2.14,2.14,0,0,1,3.82,1.91s-2,4-5.17,11.13-14.57,6.8-19,6.36c-5.4,12-13.14,14.94-18.78,15.27-.46,0-.92,0-1.38,0a21,21,0,0,1-11.71,12.48A29.49,29.49,0,0,1,829,350.76Zm13.61-32.25h-.21c-1.6.13-3.12,1.81-4.11,3.2-.6.85,0,2.18.37,2.9,1.64,2.95,5.74,5.94,10.45,7A12.32,12.32,0,0,0,846,320.36,5.07,5.07,0,0,0,842.6,318.51Z" class="b523bdc5-27f7-4fd6-8da0-db457544f748"></path><path d="M909.75,303.39a5.18,5.18,0,0,1-7.08,5.5l-10-4.07-10-4.07a5.18,5.18,0,0,1-1.23-8.88l8.53-6.64,8.53-6.63a5.18,5.18,0,0,1,8.31,3.38l1.48,10.7Z" class="b523bdc5-27f7-4fd6-8da0-db457544f748"></path><path d="M784.58,170.31a2.13,2.13,0,0,1-2.13-2.06c-.11-3.3,4.74-25.77,18.33-32.29,14.53-7,15.63-16.48,15.67-16.89a2.17,2.17,0,0,1,2.32-1.92,2.12,2.12,0,0,1,1.93,2.29c0,.5-1.19,12.28-18.08,20.37-11,5.28-16,24.86-15.9,28.3a2.13,2.13,0,0,1-2.06,2.2Z" class="b523bdc5-27f7-4fd6-8da0-db457544f748"></path><path d="M793.2,458.32A17.34,17.34,0,1,1,810.53,441,17.34,17.34,0,0,1,793.2,458.32Zm0-30.4A13.07,13.07,0,1,0,806.27,441,13.08,13.08,0,0,0,793.2,427.92Z" class="b523bdc5-27f7-4fd6-8da0-db457544f748"></path><path d="M276.61,417.4a8.14,8.14,0,1,1,8.14-8.14A8.15,8.15,0,0,1,276.61,417.4Zm0-12a3.88,3.88,0,1,0,3.88,3.87A3.87,3.87,0,0,0,276.61,405.39Z" class="b523bdc5-27f7-4fd6-8da0-db457544f748"></path><path d="M275.38,285.11c2.89-1,2.45-5.18,1.6-8.05a133.86,133.86,0,0,0-31.31-54.28A9.25,9.25,0,0,0,236,219c-4.22.46-9.5,2.29-9.53,6.43,0,2,1.29,3.71,2.53,5.28l22.87,28.71,15.95,20S272.55,286.08,275.38,285.11Z" class="b523bdc5-27f7-4fd6-8da0-db457544f748"></path><circle r="8.53" cy="295.67" cx="286.15" class="b523bdc5-27f7-4fd6-8da0-db457544f748"></circle><path d="M301,259.51c2.89-1,2.45-5.18,1.6-8a133.86,133.86,0,0,0-31.31-54.28,9.25,9.25,0,0,0-9.72-3.74c-4.22.46-9.5,2.29-9.53,6.43,0,2,1.29,3.71,2.53,5.28l22.87,28.71,15.95,20S298.15,260.48,301,259.51Z" class="b523bdc5-27f7-4fd6-8da0-db457544f748"></path><circle r="8.53" cy="270.07" cx="311.75" class="b523bdc5-27f7-4fd6-8da0-db457544f748"></circle><path d="M858.49,222.71a2.14,2.14,0,0,1-1.92-3.05c.25-.54,25.18-53.76-7.19-73.34a2.14,2.14,0,0,1,1-4c.47,0,46.66-2.46,63.69-25.92,6.4-8.82,7.89-19.67,4.43-32.25a2.14,2.14,0,0,1,3.2-2.37c.4.26,40.15,26,49.42,78.72a2.15,2.15,0,0,1,0,.62c-5.36,46.64-47.2,44.92-60.94,44.35l-.53,0c-12.28-.5-40.13,4.7-49.5,16.42A2.15,2.15,0,0,1,858.49,222.71Zm-2-76.58c21.33,17.83,12.85,51.4,7.31,67,13.13-8.64,35-12.38,46.07-11.91l.54,0c14.08.58,51.43,2.12,56.49-40.28-7.18-40.26-32.6-64-43-72.26,2,11.54-.16,21.69-6.36,30.25C902.89,139.1,870,144.67,856.45,146.13Z" class="b523bdc5-27f7-4fd6-8da0-db457544f748"></path><circle r="8.51" cy="152.1" cx="895.9" class="b523bdc5-27f7-4fd6-8da0-db457544f748"></circle><path d="M969,160.91c-1.8-15.22-10.41-32.12-10.41-32.12-3.16,3.16-23.67-5.07-32.53,3.79-4.28,4.27-8.22,20.88-11.17,36.94-1.58,8.63-5.15,14.45-14.81,14.45l-11.31-7.05a9.5,9.5,0,0,0-11.91,1.5l-9.18,9.6c2,10.1-9.2,32.56-9.2,32.56,6.31-9,27.63-16.64,40.37-16.64s31.17-1.3,31.17-1.3l-1.24-.77C973.08,194.39,969,160.91,969,160.91Z" class="b523bdc5-27f7-4fd6-8da0-db457544f748"></path><path d="M526.38,296.52a2.13,2.13,0,0,1-2.14-2.13c0-2.87,1.08-29.78,1.4-37.84H504.59l-12.71,36.26a2.13,2.13,0,1,1-4-1.41l13.22-37.69a2.13,2.13,0,0,1,2-1.43h24.79A2.15,2.15,0,0,1,530,254.5c0,.37-1.49,36.67-1.49,39.89A2.13,2.13,0,0,1,526.38,296.52Z" class="e199e021-cf3b-4113-b0da-229c0ef60d94"></path><path d="M799.93,168.65a3,3,0,0,1-.42,0,2.13,2.13,0,0,1-1.67-2.5,23.44,23.44,0,0,1,13.65-16,2.13,2.13,0,0,1,1.66,3.93A19.14,19.14,0,0,0,802,166.94,2.13,2.13,0,0,1,799.93,168.65Z" class="b523bdc5-27f7-4fd6-8da0-db457544f748"></path><path d="M512.28,221a2.09,2.09,0,0,1-.94-.22,2.11,2.11,0,0,1-1-2.82c1.42-2.94,6.5-7.44,15.59-3.4a2.13,2.13,0,0,1-1.73,3.9c-7.37-3.27-9.78.89-10,1.37A2.15,2.15,0,0,1,512.28,221Z" class="e199e021-cf3b-4113-b0da-229c0ef60d94"></path><path d="M525.08,267.94h-26a2.14,2.14,0,1,1,0-4.27h26a2.14,2.14,0,1,1,0,4.27Z" class="e199e021-cf3b-4113-b0da-229c0ef60d94"></path><path d="M350.15,184.74c3.25,0,11.47,7.44,15.19,14.76a4.49,4.49,0,0,0,7.21,1.24l.45-.45a4.48,4.48,0,0,0,.42-5.86l-10.47-14Z" class="e199e021-cf3b-4113-b0da-229c0ef60d94"></path><path d="M448.22,128.54c-1,3.08,3.39,13.24,9.14,19.1a4.5,4.5,0,0,1-1.12,7.23l-.57.28a4.49,4.49,0,0,1-5.7-1.47l-9.88-14.38Z" class="e199e021-cf3b-4113-b0da-229c0ef60d94"></path><rect height="1024" width="1024" class="a33ebaf2-8300-4e51-8e75-25b4ee1a31c7"></rect></svg>