<svg xmlns="http://www.w3.org/2000/svg" viewBox="0 0 100.169 98.263" width="100.169" height="98.263">
  <g stroke-linecap="round">
    <path fill="#FFF" d="m11.071 71.374 78.05-.53 2.75 17.81-82.11.54"/>
    <path d="M8.561 69.614c26.92-1.3 49.22-.55 80.33-1.05m-78.12 1.12c21.4.49 44.46-.23 78.73.47m-.18-.38c1.74 5.72 2.29 11.42.17 18.59m.81-17.8c.38 3.48.09 6.82-.81 18.34m-1.16-.8c-25.4.91-47.71-.75-79.67.18m80.91.62c-28.89-1.84-57.82-.69-78.42.25m-.33-.32c1.24-4.29-1.99-7.44.58-20.78m-1.2 20.02c.45-7.61.35-14.91-.02-18.75" stroke="#000" fill="#000"/>
  </g>
  <g stroke-linecap="round">
    <path fill="#FFF" d="m12.111 38.802 78.65 2.74-.77 16.22-78.64 1.26"/>
    <path d="M10.351 40.822c21.88-1.04 46.15-1.52 78.13-1.49m-78.06.36c29.42.87 58.28-.79 79.65-.14m-.38 1.16c.66 6.42 1.33 10.21.01 16.1m.78-16.44c-.56 5.06-1.18 9.49-.24 18.22m-.8-2.01c-25.95 2.35-54.76-.65-79 3.07m79.8-1.91c-24.5-.57-46.63.93-78.93-.12m-.32 2.54c-.06-9.77.89-13.82-2.2-18.6m1.44 17.05c-.37-5.31-.37-10.84-.17-18.47" stroke="#000" fill="#000"/>
  </g>
  <g stroke-linecap="round">
    <path fill="#FFF" d="m8.96 11.16 81.72-.77-2.36 17.52-77.72-2.93"/>
    <path d="M10.98 8.3c18.68.78 38.66.6 77.49 3.17M9.85 9.84c18.4-.72 33.99.64 78.84.33m1.08.53c.42 5.51-1.49 9.18-2.26 16.07m1.95-16.41c-.23 3.79-1.07 8.93-.32 16.98m-2 .68c-17.74-1.73-41.58-1.09-75.91-1.17m77.08-.46c-17.79 1.64-33.95 1.98-79.11 1.1m2.39-.18c-2.99-2.95-.73-9.46-.02-17.64m-1.4 16.84c-.04-5.56-.35-10.99.11-15.79" stroke="#000" fill="#000"/>
  </g>
</svg>
