<svg viewBox="0 0 1024 1024" xmlns="http://www.w3.org/2000/svg" id="b52015b4-2459-46df-970a-a6cd264bdde9"><defs><style>.bd557e99-0b60-410e-9190-ab39419af894{fill:none;}.a54ce527-3476-4590-b6a3-daf0baba896f{fill:#e61f19;opacity:0.2;}.ec866187-f413-49ef-aca1-b2c926a96c4c{fill:#fff;}.e1c3efd2-ec07-48e8-9f5a-049331813ab8{fill:#040000;}.bf745ff3-d487-4892-9840-f9bc03550fe1{fill:#fffdfd;}.a635c0bf-c78a-49dd-bca9-cad7ca5aedca{fill:#231815;}.a226ff1a-3cb1-4ecf-84f6-4ccc6cc0a18d{fill:#060001;}</style></defs><title>党建1024px尺寸</title><rect height="1024" width="1024" class="bd557e99-0b60-410e-9190-ab39419af894"></rect><path d="M892.19,468.81a6.4,6.4,0,0,1-2.87-12.48c1.71-.39,30.78-6.8,57.52,3.93,10-19.51,15.95-41.22,13.34-68.57C937.69,155.37,715.46,279.07,512.3,101.94c-102.19-89.1-203.12-67.57-268.64-3.67,12.66,18.83,31.68,36.7,42.36,45.3a6.4,6.4,0,0,1-8,10A270.16,270.16,0,0,1,242.43,118q-4.32-5.28-7.87-10.34c-70.65,77.13-93.35,205-17.69,283.08,21.76,22.47,31.31,44.24,33.46,65.51,25.26-.61,49.85,4.24,64.92,21a6.4,6.4,0,1,1-9.52,8.56c-12.19-13.54-33-17.5-55-16.89C247.4,586.07,45.29,689.44,470,816.65c213.73,64,320.93,33.34,364.64-46,43.41-78.83,18.26-98.79,32.05-169.25,11.26-57.6,49.61-90.25,73.73-129.75C917.6,463.19,892.55,468.73,892.19,468.81Z" class="a54ce527-3476-4590-b6a3-daf0baba896f"></path><path d="M445.95,222.22h36.11a0,0,0,0,1,0,0v55.21a0,0,0,0,1,0,0H445.95A24.41,24.41,0,0,1,421.53,253v-6.38a24.41,24.41,0,0,1,24.41-24.41Z" class="ec866187-f413-49ef-aca1-b2c926a96c4c"></path><path d="M482.06,279.56H445.22a25.85,25.85,0,0,1-25.82-25.82v-7.83a25.85,25.85,0,0,1,25.82-25.82h36.84a2.13,2.13,0,0,1,2.13,2.13v55.21A2.13,2.13,0,0,1,482.06,279.56Zm-36.84-55.21a21.58,21.58,0,0,0-21.55,21.56v7.83a21.58,21.58,0,0,0,21.55,21.55h34.71V224.35Z" class="e1c3efd2-ec07-48e8-9f5a-049331813ab8"></path><path d="M437.16,246.55s17.11-3.73,22.44,7.16" class="ec866187-f413-49ef-aca1-b2c926a96c4c"></path><path d="M459.6,255.85a2.12,2.12,0,0,1-1.91-1.2c-4.55-9.28-19.92-6.05-20.07-6a2.13,2.13,0,1,1-.91-4.16c.76-.17,18.81-3.95,24.81,8.3a2.14,2.14,0,0,1-1,2.86A2.09,2.09,0,0,1,459.6,255.85Z" class="e1c3efd2-ec07-48e8-9f5a-049331813ab8"></path><path d="M332.29,593.16S311,678.51,317.59,720.67s51,22.29,51,22.29L395.9,613.49l-67.83-19.67" class="ec866187-f413-49ef-aca1-b2c926a96c4c"></path><path d="M346.64,749.79a33,33,0,0,1-15.85-3.66c-8.26-4.49-13.42-13-15.31-25.13-5.84-37.56,9.77-107.47,13.83-124.6l-1.83-.54a2.13,2.13,0,1,1,1.19-4.09l1.69.49a2.13,2.13,0,0,1,4.05,1.17l62.09,18a2.13,2.13,0,0,1,1.49,2.49L370.64,743.41a2.13,2.13,0,0,1-1.22,1.5A62.14,62.14,0,0,1,346.64,749.79Zm-13.22-152.2c-4,17.19-19.35,86.6-13.73,122.75,1.68,10.8,6.1,18.21,13.12,22,12.38,6.75,29.62.73,33.89-1L393.41,615Z" class="e1c3efd2-ec07-48e8-9f5a-049331813ab8"></path><path d="M439.67,436s-56.4,7.71-93.12,81.48c-13.84,27.81-23.65,58.87-32.77,77.8a22.12,22.12,0,0,0,11.62,30.09l52.89,21.52a22.15,22.15,0,0,0,28.63-11.63l34.64-79.12Z" class="e1c3efd2-ec07-48e8-9f5a-049331813ab8"></path><path d="M644.74,404.62a245.08,245.08,0,0,0-58.61-5.74H555.21c-43.81-.85-87.52,18-126.43,42.89a41.54,41.54,0,0,0-18.87,29.16c-6,41.91-18.12,158.8-12.63,391,0,0,258.89,12.8,361.29-25.6L719.21,587.27,750,448.09c-23.87-17.07-72.12-36-105.3-43.47" class="ec866187-f413-49ef-aca1-b2c926a96c4c"></path><path d="M493.66,866.07c-55,0-95.47-1.93-96.49-2a2.14,2.14,0,0,1-2-2.08c-5.53-234.23,7-351.73,12.66-391.38A43.73,43.73,0,0,1,427.63,440c46.08-29.44,89.08-44,127.63-43.22h30.85a249.59,249.59,0,0,1,59.1,5.78c31.37,7,80.84,25.78,106.07,43.83a2.11,2.11,0,0,1,.84,2.19L721.38,587.33,760.68,836a2.13,2.13,0,0,1-1.36,2.33C697.66,861.48,578.45,866.07,493.66,866.07Zm-94.3-6.15C423.46,861,659,870.3,756.19,835L717.1,587.6a2.1,2.1,0,0,1,0-.79L747.65,449c-25.13-17.49-72.88-35.5-103.37-42.32a245.11,245.11,0,0,0-58-5.69h-31c-38-.76-79.94,13.58-125.28,42.56A39.45,39.45,0,0,0,412,471.23C406.41,510.66,394,627.35,399.36,859.92Z" class="e1c3efd2-ec07-48e8-9f5a-049331813ab8"></path><path d="M850.47,591.22l-74.11,66.25a16.69,16.69,0,0,1-24.53-2.53l-45-60.84c-22.81-30.83-33.63-69.25-28.57-107.26,3.4-25.54,13.95-47.5,39.51-52,64-11.41,117.41,99.55,136.45,136.28A16.7,16.7,0,0,1,850.47,591.22Z" class="e1c3efd2-ec07-48e8-9f5a-049331813ab8"></path><polygon points="785.54 635.83 841.01 576.09 823.94 537.69 785.54 537.69 759.94 567.56 759.94 593.16 785.54 635.83" class="e1c3efd2-ec07-48e8-9f5a-049331813ab8"></polygon><path d="M438.57,174.74s14.21,37.9,9.48,47.38c0,0,4.73-4.74,14.21,0V189Z" class="e1c3efd2-ec07-48e8-9f5a-049331813ab8"></path><path d="M533.27,359.24s3.15,27.63-7.78,44.71c-5,7.8-1,18.22,7.75,21.32,18.55,6.58,48,11,81.29-6.7a10,10,0,0,0,3.23-15c-7-8.95-15.26-26.54-12.13-58.23Z" class="ec866187-f413-49ef-aca1-b2c926a96c4c"></path><path d="M566.33,433.17a101.24,101.24,0,0,1-33.8-5.89,17,17,0,0,1-10.46-10.56,16,16,0,0,1,1.62-13.92c10.39-16.23,7.5-43.05,7.46-43.32a2.15,2.15,0,0,1,1.72-2.34l72.36-13.93a2.1,2.1,0,0,1,1.84.52,2.16,2.16,0,0,1,.69,1.78c-3,30.64,4.68,47.75,11.68,56.7a12.19,12.19,0,0,1-3.91,18.25C597.71,429.89,581,433.17,566.33,433.17ZM535.57,361c.51,6.76,1.34,29.1-8.29,44.13a11.78,11.78,0,0,0-1.17,10.23,12.78,12.78,0,0,0,7.84,7.93c18.35,6.51,47.06,10.64,79.59-6.58a7.91,7.91,0,0,0,2.54-11.84c-7.26-9.28-15.25-26.63-12.83-56.91Z" class="e1c3efd2-ec07-48e8-9f5a-049331813ab8"></path><path transform="translate(1301.48 499.65) rotate(180)" d="M642.37,222.22H681a0,0,0,0,1,0,0v55.21a0,0,0,0,1,0,0H646a25.55,25.55,0,0,1-25.55-25.55v-7.77a21.89,21.89,0,0,1,21.89-21.89Z" class="ec866187-f413-49ef-aca1-b2c926a96c4c"></path><path d="M657.31,279.56H620.48a2.13,2.13,0,0,1-2.14-2.13V222.22a2.13,2.13,0,0,1,2.14-2.13h36.83a25.85,25.85,0,0,1,25.83,25.82v7.83A25.85,25.85,0,0,1,657.31,279.56Zm-34.7-4.27h34.7a21.58,21.58,0,0,0,21.56-21.55v-7.83a21.58,21.58,0,0,0-21.56-21.56h-34.7Z" class="e1c3efd2-ec07-48e8-9f5a-049331813ab8"></path><path d="M525.86,130.65h44.46a72.62,72.62,0,0,1,72.62,72.62v70.87A94.85,94.85,0,0,1,548.09,369h0a94.85,94.85,0,0,1-94.85-94.85V203.27A72.62,72.62,0,0,1,525.86,130.65Z" class="ec866187-f413-49ef-aca1-b2c926a96c4c"></path><path d="M548.09,371.12a97.08,97.08,0,0,1-97-97V130.65a2.13,2.13,0,0,1,2.13-2.13h189.7a2.13,2.13,0,0,1,2.13,2.13V274.14A97.09,97.09,0,0,1,548.09,371.12ZM455.37,132.79V274.14a92.72,92.72,0,1,0,185.44,0V132.79Z" class="e1c3efd2-ec07-48e8-9f5a-049331813ab8"></path><path d="M676.45,102.77c.11-.85.21-1.71.25-2.59.72-16.45-12.91-30.41-30.45-31.19a33.66,33.66,0,0,0-12.36,1.77c-9.24-9.8-23.44-16.41-39.63-17.12-16.68-.73-31.8,5-41.86,14.41A47.16,47.16,0,0,0,521,54.43c-18.78-.82-35.36,9.11-43,24a34.49,34.49,0,0,0-13.45-3.38c-17.92-.79-33.35,12.26-37,30.1-13.1,5.23-22.43,16.57-23,30.12-.69,15.6,10.38,29.32,26.26,34.51a39.26,39.26,0,0,0,69.4,10.43,44.06,44.06,0,0,0,23.21,7.88,44.52,44.52,0,0,0,31.35-11.16c7.8,12.32,20.67,20.67,35.6,21.33a43.68,43.68,0,0,0,31.31-11.58,55.76,55.76,0,0,0,27.7,8.73c29.29,1.29,54-19.74,55.2-47C705.39,128.9,693.85,111.52,676.45,102.77Z" class="e1c3efd2-ec07-48e8-9f5a-049331813ab8"></path><path d="M464.17,272.26h-.11L441.53,271a2.13,2.13,0,0,1-2-2.24,2.06,2.06,0,0,1,2.24-2L464.29,268a2.13,2.13,0,0,1-.12,4.26Z" class="e1c3efd2-ec07-48e8-9f5a-049331813ab8"></path><path d="M587.91,275.29a2.13,2.13,0,0,1-.12-4.26l22.52-1.23a2,2,0,0,1,2.25,2,2.13,2.13,0,0,1-2,2.24L588,275.29Z" class="e1c3efd2-ec07-48e8-9f5a-049331813ab8"></path><path d="M482.17,271A32.93,32.93,0,1,1,515.1,238.1,33,33,0,0,1,482.17,271Zm0-61.6a28.67,28.67,0,1,0,28.66,28.67A28.69,28.69,0,0,0,482.17,209.43Z" class="e1c3efd2-ec07-48e8-9f5a-049331813ab8"></path><path d="M571.77,271A32.93,32.93,0,1,1,604.7,238.1,33,33,0,0,1,571.77,271Zm0-61.6a28.67,28.67,0,1,0,28.66,28.67A28.69,28.69,0,0,0,571.77,209.43Z" class="e1c3efd2-ec07-48e8-9f5a-049331813ab8"></path><path d="M540.16,236.89a2.16,2.16,0,0,1-1.42-.54c-9.2-8.25-21.66-.16-22.19.19a2.14,2.14,0,0,1-2.36-3.56c5.39-3.59,18-8.18,27.4.19a2.13,2.13,0,0,1-1.43,3.72Z" class="e1c3efd2-ec07-48e8-9f5a-049331813ab8"></path><path d="M488.08,139.94c-11.06,0-18.9-2.77-23.37-8.27-6.55-8.07-3.16-18.74-3-19.19a2.14,2.14,0,0,1,4.06,1.33c0,.09-2.81,9,2.28,15.19,4.57,5.6,14.47,7.74,28.62,6.16a2.1,2.1,0,0,1,2.35,1.89,2.13,2.13,0,0,1-1.88,2.35A81.76,81.76,0,0,1,488.08,139.94Z" class="bf745ff3-d487-4892-9840-f9bc03550fe1"></path><path d="M535.18,144.42c-6.19,0-9.87-.26-10-.27a2.14,2.14,0,0,1,.32-4.26c.61.05,61.48,4.35,107.71-23.39a2.14,2.14,0,1,1,2.2,3.66C599.35,141.78,554.77,144.42,535.18,144.42Z" class="bf745ff3-d487-4892-9840-f9bc03550fe1"></path><path d="M528.76,290.1c-12.07,0-19.06-6.79-19.16-6.9a2.13,2.13,0,0,1,3-3c.56.55,13.45,12.8,35.3-.32a2.13,2.13,0,1,1,2.19,3.66C541.9,288.44,534.71,290.1,528.76,290.1Z" class="e1c3efd2-ec07-48e8-9f5a-049331813ab8"></path><path d="M464.2,195.4a2.12,2.12,0,0,1-1.77-3.31c.1-.16,10.56-15.52,26.13-10.32a2.13,2.13,0,1,1-1.35,4c-12.52-4.18-21.15,8.5-21.23,8.63A2.14,2.14,0,0,1,464.2,195.4Z" class="e1c3efd2-ec07-48e8-9f5a-049331813ab8"></path><path d="M607.33,198.49a2.13,2.13,0,0,1-2.07-1.61c0-.07-1.86-7-7.41-9.58-3.56-1.63-8-1.13-13.26,1.49a2.13,2.13,0,1,1-1.9-3.82c6.46-3.23,12.18-3.74,17-1.54,7.41,3.41,9.65,12,9.74,12.41a2.13,2.13,0,0,1-1.55,2.58A1.91,1.91,0,0,1,607.33,198.49Z" class="e1c3efd2-ec07-48e8-9f5a-049331813ab8"></path><path d="M274.39,258a27.07,27.07,0,0,1-12.7-3.16c-8.21-4.25-12.65-9.51-14.57-14.57-20.07-3.76-29.48-24-29.58-24.28a2.13,2.13,0,0,1,3.88-1.76c.39.85,8.12,17.39,24.62,21.46a15.93,15.93,0,0,1,.45-5.7c2-7.56,9.28-12.59,17.7-12.19,4.94.22,9.46,5.06,9.67,10.35.09,2.45-.75,10.59-15.54,12.42a36.76,36.76,0,0,1-6.23.26c1.95,3.53,5.59,7.13,11.56,10.23,22,11.41,44.91-18.36,45.14-18.67a2.13,2.13,0,0,1,3.4,2.58C311.34,236.08,294.47,258,274.39,258Zm-23.93-21.55a33.63,33.63,0,0,0,7.34-.12c7.66-.95,12-3.87,11.79-8-.12-3.09-2.84-6.13-5.6-6.26-6.42-.32-11.88,3.43-13.38,9A11.93,11.93,0,0,0,250.46,236.44Z" class="a635c0bf-c78a-49dd-bca9-cad7ca5aedca"></path><circle r="18.44" cy="395.68" cx="829.65" class="ec866187-f413-49ef-aca1-b2c926a96c4c"></circle><path d="M829.65,416.26a20.58,20.58,0,1,1,20.57-20.58A20.6,20.6,0,0,1,829.65,416.26Zm0-36.89A16.31,16.31,0,1,0,846,395.68,16.33,16.33,0,0,0,829.65,379.37Z" class="e1c3efd2-ec07-48e8-9f5a-049331813ab8"></path><circle r="6.23" cy="245.25" cx="470.74" class="e1c3efd2-ec07-48e8-9f5a-049331813ab8"></circle><circle r="6.23" cy="245.25" cx="556.08" class="e1c3efd2-ec07-48e8-9f5a-049331813ab8"></circle><path d="M357.84,367.36s-46.93-67.49-68.26-41.89c-14,16.79,6.81,18.61,17.05,20a113.51,113.51,0,0,1,18.15,4C334.86,352.7,348.34,358.29,357.84,367.36Z" class="ec866187-f413-49ef-aca1-b2c926a96c4c"></path><path d="M357.84,369.49a2.13,2.13,0,0,1-1.47-.59c-9.3-8.88-22.66-14.33-32.23-17.33a109.87,109.87,0,0,0-17.8-3.94l-1.61-.22c-7.93-1.07-18.79-2.54-21.42-9.3-1.51-3.88,0-8.46,4.63-14a17,17,0,0,1,14.35-6.55c24,1.05,55.95,46.64,57.3,48.58a2.13,2.13,0,0,1-1.75,3.35Zm-56.4-47.68a12.76,12.76,0,0,0-10.23,5c-2.39,2.88-5,6.9-3.92,9.72,1.71,4.42,11.91,5.8,18,6.63l1.63.22a113.68,113.68,0,0,1,18.49,4.09,108.49,108.49,0,0,1,21.7,9.34c-11.09-13.64-30.3-34.37-45-35Z" class="e1c3efd2-ec07-48e8-9f5a-049331813ab8"></path><ellipse transform="translate(-50.29 47.73) rotate(-7.73)" ry="6.4" rx="21.33" cy="395.87" cx="327.98" class="ec866187-f413-49ef-aca1-b2c926a96c4c"></ellipse><path d="M320.05,405a44.74,44.74,0,0,1-6.74-.47c-5.32-.84-8.21-2.68-8.58-5.47h0c-.79-5.81,10.9-10.09,22.1-11.61a57.37,57.37,0,0,1,15.82-.17c5.32.84,8.21,2.68,8.58,5.47.79,5.81-10.9,10.09-22.1,11.61A67.75,67.75,0,0,1,320.05,405ZM309,398.46c.59,1.13,7.33,3.3,19.59,1.64s18.29-5.63,18.45-6.84c-.47-1.07-7.21-3.3-19.59-1.61S309.22,397.2,309,398.46Z" class="e1c3efd2-ec07-48e8-9f5a-049331813ab8"></path><path d="M664.7,179.29s-12.8,34.14-8.53,42.67c0,0-4.27-4.27-12.8,0V192.09Z" class="e1c3efd2-ec07-48e8-9f5a-049331813ab8"></path><path d="M897.37,302.36c-4.78,0-9.17-3.36-13.07-10-3.09-5.24-6.25-8-9.14-8.08h-.06c-3.64,0-6.74,4.3-7.9,6.16a29.27,29.27,0,0,1-6.45,7.6c-7.45,5.85-15.35,4.85-21.69-2.76-3.14-3.77-6.14-5.68-8.91-5.68s-4.94,1.91-6.27,3.52c-3,3.58-5.89,5.9-8.89,7.09-4.29,1.7-10.74,2.36-17-4.22-2.5-2.61-5-3.84-7.56-3.58-4.92.44-8.62,6-8.66,6a2.13,2.13,0,0,1-3.57-2.34c.19-.3,4.85-7.3,11.81-7.94,3.9-.36,7.62,1.28,11.06,4.88,3.74,3.91,7.92,5,12.39,3.2,2.32-.92,4.68-2.83,7.19-5.85,1.92-2.31,5.13-5.06,9.54-5.06h0c4.1,0,8.2,2.43,12.19,7.22,4.92,5.91,10.08,6.61,15.78,2.13a25,25,0,0,0,5.47-6.51c1.93-3.08,6.15-8.14,11.64-8.15,4.52.06,8.81,3.49,12.74,10.18,3.08,5.23,6.24,7.89,9.41,7.89h.06c4.56,0,8.75-5.74,10-7.93a2.13,2.13,0,0,1,3.73,2.07c-.23.42-5.68,10-13.65,10.12Z" class="e1c3efd2-ec07-48e8-9f5a-049331813ab8"></path><path d="M897.37,327.67c-4.78,0-9.17-3.36-13.07-10-3.09-5.25-6.25-8-9.14-8.08h-.06c-3.64,0-6.74,4.3-7.9,6.15a29.27,29.27,0,0,1-6.45,7.6c-7.45,5.86-15.35,4.85-21.69-2.76-3.14-3.77-6.14-5.68-8.91-5.68s-4.94,1.92-6.27,3.52c-3,3.58-5.89,5.9-8.89,7.09-4.29,1.7-10.74,2.37-17-4.22-2.5-2.6-5-3.82-7.56-3.58-4.92.44-8.62,6-8.66,6a2.13,2.13,0,0,1-3.57-2.33c.19-.3,4.85-7.3,11.81-7.95,3.9-.36,7.62,1.29,11.06,4.88,3.74,3.91,7.92,5,12.39,3.21,2.32-.92,4.68-2.84,7.19-5.86,1.92-2.3,5.13-5.05,9.54-5.05h0c4.1,0,8.2,2.42,12.19,7.21,4.92,5.91,10.08,6.62,15.78,2.14a25.19,25.19,0,0,0,5.47-6.52c1.93-3.07,6.15-8.25,11.64-8.15,4.52.07,8.81,3.49,12.74,10.19,3.08,5.23,6.24,7.88,9.41,7.88h.06c4.56,0,8.75-5.74,10-7.93a2.14,2.14,0,0,1,3.73,2.08c-.23.41-5.68,10-13.65,10.12Z" class="e1c3efd2-ec07-48e8-9f5a-049331813ab8"></path><path d="M643.37,254a2.27,2.27,0,0,1-.62-.09,2.14,2.14,0,0,1-1.42-2.67c0-.13,4.34-13.44,23.83-9.2a2.13,2.13,0,1,1-.91,4.17c-15.68-3.44-18.81,6.18-18.84,6.28A2.13,2.13,0,0,1,643.37,254Z" class="e1c3efd2-ec07-48e8-9f5a-049331813ab8"></path><path d="M572.84,418.61c-26.78,1.08-41.24-6.35-48.94-17.45-4.26,0-17.2,1.18-17.06,4.27.68,15.16,33.43,31.08,66,29.78s58.4-17.31,57.72-32.48c-.09-2-6.08-2.06-9.9-2.92a5.12,5.12,0,0,0-5.17,1.78C608,411.08,596.26,417.68,572.84,418.61Z" class="e1c3efd2-ec07-48e8-9f5a-049331813ab8"></path><rect transform="translate(-88.61 79.51) rotate(-6.78)" rx="8.78" height="217.6" width="755.2" y="678.39" x="248.8" class="e1c3efd2-ec07-48e8-9f5a-049331813ab8"></rect><path d="M273.3,652.83a20.79,20.79,0,0,1,33,14.36l16.54,145.56L339.39,958.3a20.78,20.78,0,0,1-28.94,21.41L176.13,921.26,41.8,862.81A20.78,20.78,0,0,1,37.74,827l117.78-87.11Z" class="e1c3efd2-ec07-48e8-9f5a-049331813ab8"></path><path transform="translate(-83.26 77.63) rotate(-6.78)" d="M244.37,632.3H982a8.78,8.78,0,0,1,8.78,8.78V807.91a42,42,0,0,1-42,42H244.37a8.78,8.78,0,0,1-8.78-8.78v-200a8.78,8.78,0,0,1,8.78-8.78Z" class="ec866187-f413-49ef-aca1-b2c926a96c4c"></path><path d="M283.84,891.71a39.66,39.66,0,0,1-39.3-34.93L227.69,715.14a39.59,39.59,0,0,1,34.65-44l675.48-80.36a39.67,39.67,0,0,1,44,34.66l16.85,141.64a39.61,39.61,0,0,1-34.66,44L288.55,891.43A39.53,39.53,0,0,1,283.84,891.71Zm658.68-297a35.29,35.29,0,0,0-4.2.25L262.84,675.36a35.35,35.35,0,0,0-30.92,39.27l16.85,141.64A35.37,35.37,0,0,0,288,887.2l675.48-80.37a35.34,35.34,0,0,0,30.93-39.27L977.6,625.92A35.41,35.41,0,0,0,942.52,594.75Z" class="e1c3efd2-ec07-48e8-9f5a-049331813ab8"></path><path d="M260.08,606.74a20.79,20.79,0,0,1,33,14.36l16.55,145.56,16.54,145.55a20.78,20.78,0,0,1-28.94,21.41L162.91,875.17,28.58,816.72A20.79,20.79,0,0,1,24.52,781L142.3,693.84Z" class="ec866187-f413-49ef-aca1-b2c926a96c4c"></path><path d="M305.59,937.51a22.93,22.93,0,0,1-9.2-1.94L27.74,818.67a22.92,22.92,0,0,1-4.49-39.44L258.82,605a22.91,22.91,0,0,1,36.39,15.84L328.3,912a23,23,0,0,1-22.71,25.54ZM272.4,604.77a18.56,18.56,0,0,0-11,3.68L25.79,782.66a18.65,18.65,0,0,0,3.65,32.1l268.65,116.9a18.65,18.65,0,0,0,26-19.21L291,621.35a18.75,18.75,0,0,0-18.57-16.58Z" class="e1c3efd2-ec07-48e8-9f5a-049331813ab8"></path><path d="M845.06,839.08c8.53,4.27,5.33,7.21-5.42,31.41,0,.07,0,4.27,0,12.8,0,14.41-11.42,24-25.19,28.2l-.41.13c-42.67,12.8-67.12-21.34-67.12-21.34S725.59,869,725.59,856.15s17.07,0,17.07,0c-4.27-21.33,12.8-8.53,12.8-8.53-4.27-21.34,17.06-4.27,17.06-4.27-4.26-17.07,8.54-12.8,17.07,0,7,10.46,25.6,17.07,25.6,17.07S834.26,833.69,845.06,839.08Z" class="ec866187-f413-49ef-aca1-b2c926a96c4c"></path><path d="M795.37,916.6c-31.79,0-50-24.78-50.18-25.08-.67-.62-21.73-21.84-21.73-35.37,0-4.47,1.89-6.36,3.48-7.15,3.7-1.85,9.16.54,12.95,2.77-.3-4.64.73-7.66,3.12-9.17,2.93-1.84,6.83-.62,9.77.86-.16-3.91.86-6.49,3.07-7.83,3.77-2.3,9.66.47,13.74,3-.33-5.23,1.59-7.37,3.52-8.22,5.3-2.34,13.19,4.13,18.25,11.73,5.4,8.09,18.64,13.9,23.07,15.67,4.45-6,20.58-26.16,31.58-20.67,9.1,4.55,7,9.22-.12,24.69-1.21,2.64-2.59,5.66-4.13,9.11v12.32c0,13.83-10,25.14-26.7,30.24l-.41.13A67.13,67.13,0,0,1,795.37,916.6Zm-65.33-64a2.72,2.72,0,0,0-1.19.23c-.93.47-1.13,2.07-1.13,3.34,0,9.77,14.95,26.86,20.71,32.62,1.19,1.61,24.33,33,65,20.8l.43-.13c14.79-4.51,23.65-14.29,23.65-26.15v-8.51c0-4.69,0-4.69.19-5.14,1.62-3.65,3.06-6.81,4.32-9.56,7.5-16.38,7.2-16.54,2.09-19.09h0c-6.65-3.34-20.21,10.91-27.17,20.67a2.14,2.14,0,0,1-2.45.77c-.79-.28-19.38-7-26.67-17.9-5.07-7.62-11-11.08-13-10.19-.8.35-1.74,2.53-.25,8.49a2.14,2.14,0,0,1-3.4,2.19c-4.08-3.27-10.93-7.1-13.13-5.75-.44.27-1.77,1.63-.51,7.93a2.13,2.13,0,0,1-3.37,2.12c-2.65-2-7.21-4.16-8.89-3.11-.51.32-2,2-.54,9.52a2.14,2.14,0,0,1-3.37,2.13C738.23,855.5,733,852.58,730,852.58Z" class="e1c3efd2-ec07-48e8-9f5a-049331813ab8"></path><path d="M772.52,843.35s4.27,17.07,25.6,25.6" class="ec866187-f413-49ef-aca1-b2c926a96c4c"></path><path d="M798.12,871.08a2.21,2.21,0,0,1-.79-.15c-22.09-8.84-26.69-26.32-26.88-27.06a2.15,2.15,0,0,1,1.55-2.59,2.11,2.11,0,0,1,2.59,1.55c.17.65,4.35,16.15,24.32,24.14a2.13,2.13,0,0,1-.79,4.11Z" class="e1c3efd2-ec07-48e8-9f5a-049331813ab8"></path><path d="M755.46,847.62S764,869,785.32,877.48" class="ec866187-f413-49ef-aca1-b2c926a96c4c"></path><path d="M785.32,879.62a2,2,0,0,1-.79-.16c-21.93-8.77-30.69-30.15-31-31.05a2.13,2.13,0,0,1,4-1.59c.08.21,8.48,20.6,28.67,28.68a2.14,2.14,0,0,1-.79,4.12Z" class="e1c3efd2-ec07-48e8-9f5a-049331813ab8"></path><path d="M742.66,856.15s8.53,21.33,25.6,29.87" class="ec866187-f413-49ef-aca1-b2c926a96c4c"></path><path d="M768.26,888.15a2.09,2.09,0,0,1-1-.23c-17.59-8.79-26.26-30.08-26.62-31a2.13,2.13,0,1,1,4-1.58c.08.2,8.45,20.69,24.57,28.75a2.13,2.13,0,0,1-1,4Z" class="e1c3efd2-ec07-48e8-9f5a-049331813ab8"></path><path d="M337.39,936.38s-18.13-75.41,0-75.41c10.05,0,10.05,45.25,10.05,45.25S342.42,856,357.5,861c4.77,1.59,10.05,45.25,10.05,45.25S366.37,861,377.61,861c10.05,0,5,45.25,5,45.25s12.16-38.11,20.11-30.16c5,5-2.7,29.35-2.8,35-.31,17.31-2.23,35.34-27.36,40.37C362.51,953.47,342.42,951.46,337.39,936.38Z" class="ec866187-f413-49ef-aca1-b2c926a96c4c"></path><path d="M365.45,954.23c-10.84,0-25.6-3.73-30.09-17.18a1.54,1.54,0,0,0-.05-.17c-1.51-6.29-14.47-61.84-4.16-74.92a7.74,7.74,0,0,1,6.24-3.12c1.71,0,5.72,1.22,8.67,11.54,1-4.61,2.59-8.39,5-10.32a7.23,7.23,0,0,1,7.1-1.11c3.14,1,5.89,11.21,8.12,23.71.94-8.95,2.82-17.86,6.5-21.64,2.65-2.71,6.52-3,9-.21,4.23,4.72,4.58,19.13,4.11,30.57,3.57-8.32,8.43-17.22,13.26-18.4a5.29,5.29,0,0,1,5.11,1.57c4,4,2.19,14.57-.64,27.93a68,68,0,0,0-1.54,8.65c-.32,18.59-2.83,37.17-29.08,42.42A39.41,39.41,0,0,1,365.45,954.23Zm-26-18.44c4.78,14.1,24.46,15.22,32.72,13.58,23.15-4.63,25.34-20.76,25.64-38.31a65.75,65.75,0,0,1,1.64-9.46c1.57-7.45,4.5-21.33,1.79-24-.56-.55-.88-.49-1.09-.43-4.48,1.09-11.75,18-15.48,29.74a2.13,2.13,0,0,1-4.15-.89c1.54-13.82,2.37-37.53-1.92-42.33a1.25,1.25,0,0,0-1-.54,2.37,2.37,0,0,0-1.77.89c-5.8,6-6.41,32.45-6.15,42.16a2.13,2.13,0,0,1-4.25.31c-2.33-19.24-6.39-41.39-8.89-43.61a2.87,2.87,0,0,0-2.82.53c-3.43,2.74-4.75,12.6-4.94,23.07.5,5.45.79,12,.79,19.76a2.14,2.14,0,0,1-4.26.21,187.33,187.33,0,0,1-.84-18.84c-1.24-13.63-3.79-24.48-7.09-24.48a3.49,3.49,0,0,0-2.89,1.49C326.86,874.29,335.46,919.18,339.44,935.79Z" class="e1c3efd2-ec07-48e8-9f5a-049331813ab8"></path><path d="M402.17,810.73l1-57.07-7.15.87.28-13.19,29.52-3.6L424.91,788l6.26-2.64-.32,13.87Zm18-96,5.3,16-20.78,2.53-5.3-16Zm37.38,12.51v-3.35l-23.69,2.88.12-10.09,23.82-2.9,0-.94-5.36-4.32,28.46-3.47-.22,5.94,23.95-2.92-.11,10.09-24,2.92-.12,3.37,19.85-2.42-.23,10.24-19.72,2.4-.13,3.38,25.94-3.17-.22,10.24-75.58,9.21.23-10.24,26.6-3.24.13-3.37-20.91,2.55.23-10.24Zm18.34,74.47,5.07-8,.05-7.26-26.33,3.21-.23,14.67L432.74,807l1-50.49L503.46,748l-.84,41.6a13.37,13.37,0,0,1-1.61,6.58,6.45,6.45,0,0,1-5.13,3.11Zm-21-21.09,26.34-3.21.06-3.9L455,776.77Zm.17-12.92,26.34-3.21.1-3.63-26.34,3.2Z"></path><path d="M535.82,707.15l-3.77-3.44,26.34-3.21-3.28,10.61,13.1-1.6.25-10.1-5-4.5,30.18-3.67-.3,15.21,32.69-4-.19,12.78-32.82,4-.28,15.35L630.61,730l-.32,12.8-15.08,1.84-.4,24.36,12.58-1.53,5.07-5.72-.36,20.19L598.35,786a7.82,7.82,0,0,1-6.39-1.77,7.27,7.27,0,0,1-2.36-6.16l.46-30.42-23.43,2.86L549.12,792,524,795.09l17.52-41.49-16.81,2,.31-12.8,42.62-5.19L568,722.3,551,724.38,547.68,735l-21.31,2.6Z"></path><path d="M646.4,779.1l5.22-13.39.84-46.05-5,.62.19-12.78,27.66-3.37-.89,53.3,18.79,3.21,61.55-7.49-.19,12.78-70.42,8.58-13.43-2.26-1.65,4.1Zm21.8-94.53L675.46,699l-20.11,2.45L648.08,687Zm35.21-4.29L701,693.34l9.67-1.18.23-10.23-5-4.5L731,674.37l-.28,15.34,17.61-2.14L748.13,699l-17.6,2.15-.17,12.91,20.11-2.45-.21,11.45-12.57,1.53-.24,10.23,10.06-1.22,5.21-5.74-.46,20.47-35.2,4.29.5-25.58-7.67.93L702,754.47l-20.11,2.45,7.92-26.49-9.93,1.22.22-11.45,30.18-3.67.17-12.92L698.89,705l-1.08,6.58-17.6,2.14L685,687,680.77,683Z"></path><path d="M774.31,719.87l.44-22.89-8.61,1,.32-12.8,8.61-1.05.22-11.45-3.65-3.45,24.35-3-.28,15.34,6.36-.77-.32,12.8-6.22.76-.34,17.1,6.28-2.51-.16,14.12-6.41,2.53-.54,28.67a10.33,10.33,0,0,1-2.74,6.71,10,10,0,0,1-6.38,3.27l-20.39,2.48,8.88-13.17.41-19.79-8.73,3.35.31-14ZM827.89,733l.05-6.18-21.84,2.66.3-11.86,21.71-2.65.16-5.25,21.18-2.58-.16,5.26L871,709.7l-.3,11.86-21.57,2.63-.06,6.18,23.43-2.85-.28,12-23.43,2.85-.18,14-21.17,2.58.17-14-26.07,3.18.28-12Zm44.28-73.09,0,1.75-.37,16.84-19.51,13,23.9,10.93-25.54,3.11-11.29-5.61-15.67,10.37-19.06,2.33.17-5.26L826,693.16l-20.75-10.5L827.47,680l10.69,5L854.8,673.8l-49.5,6,.3-11.86Z"></path><path d="M102.56,780.5a7.51,7.51,0,0,1-3.6-14l72.91-41.21A2.13,2.13,0,1,1,174,729l-72.91,41.21A3.09,3.09,0,0,0,99.6,774a3.06,3.06,0,0,0,3.54,2.15L275,750.59a2.16,2.16,0,0,1,2.42,1.8,2.12,2.12,0,0,1-1.79,2.42l-171.88,25.6A8.18,8.18,0,0,1,102.56,780.5Z" class="e1c3efd2-ec07-48e8-9f5a-049331813ab8"></path><path d="M104.65,810.3a2.13,2.13,0,0,1-.3-4.24l174.93-25.6a2.13,2.13,0,1,1,.62,4.22L105,810.28A1.56,1.56,0,0,1,104.65,810.3Z" class="e1c3efd2-ec07-48e8-9f5a-049331813ab8"></path><line y2="162.85" x2="833.46" y1="155.86" x1="768.85" class="a226ff1a-3cb1-4ecf-84f6-4ccc6cc0a18d"></line><path d="M833.47,165h-.23l-64.62-7a2.14,2.14,0,0,1-1.89-2.35,2.18,2.18,0,0,1,2.35-1.89l64.61,7a2.13,2.13,0,0,1-.22,4.25Z" class="e1c3efd2-ec07-48e8-9f5a-049331813ab8"></path><line y2="123.55" x2="772.35" y1="106.37" x1="811.4" class="a226ff1a-3cb1-4ecf-84f6-4ccc6cc0a18d"></line><path d="M772.35,125.69a2.13,2.13,0,0,1-.86-4.09l39-17.19a2.14,2.14,0,0,1,1.72,3.91l-39,17.19A2.18,2.18,0,0,1,772.35,125.69Z" class="e1c3efd2-ec07-48e8-9f5a-049331813ab8"></path><line y2="103.56" x2="754.22" y1="61.5" x1="792.58" class="a226ff1a-3cb1-4ecf-84f6-4ccc6cc0a18d"></line><path d="M754.22,105.7a2.14,2.14,0,0,1-1.57-3.58L791,60.07a2.13,2.13,0,0,1,3.15,2.87L755.8,105A2.14,2.14,0,0,1,754.22,105.7Z" class="e1c3efd2-ec07-48e8-9f5a-049331813ab8"></path><path d="M600.62,230a2.13,2.13,0,0,1-.56-4.19L647,213.05a2.13,2.13,0,1,1,1.13,4.11L601.19,230A2.24,2.24,0,0,1,600.62,230Z" class="e1c3efd2-ec07-48e8-9f5a-049331813ab8"></path></svg>