<svg xmlns="http://www.w3.org/2000/svg" viewBox="0 0 82.538 82.538" width="82.538" height="82.538">
  <path d="M57.372 38.67c-5.408.356-26.808 1.837-32.502 2.11m33.596-1.074c-5.707.214-30.02.057-35.828-.053" stroke="#FFF" stroke-width="4" fill="none" stroke-linecap="round"/>
  <path d="M33.894 49.565c-3.448-.81-7.11-3.57-11.22-7.083m10.806 8.322c-2.88-3.528-7.103-5.75-9.714-8.928m.151-.32c1.334-1.376 4.178-2.598 8.884-7.944m-9.634 8.102c3.918-2.659 7.02-6.79 10.715-8.409" stroke="#FFF" stroke-width="4" fill="none" stroke-linecap="round"/>
  <path d="M11.082 34.905c.763-6.458 5.638-14.325 10.723-18.55S34.989 9.39 41.58 9.564c6.582.164 14.805 3.284 19.746 7.805 4.932 4.531 8.67 12.861 9.873 19.35 1.203 6.49.622 13.958-2.655 19.586-3.277 5.637-10.477 11.662-16.986 14.198-6.52 2.538-15.832 3.44-22.107 1.044-6.267-2.408-12.493-9.135-15.549-15.452-3.045-6.308-2.557-18.31-2.737-22.446-.189-4.136 1.051-2.508 1.622-2.352M10.21 36.07c.705-6.404 6.287-14.676 11.094-19.023 4.807-4.347 11.103-6.77 17.746-7.081 6.634-.3 16.798.95 22.077 5.26 5.279 4.31 8.257 13.988 9.607 20.589 1.35 6.59 1.181 13.103-1.499 18.995-2.68 5.882-8.168 13.396-14.583 16.327-6.405 2.941-17.27 3.346-23.886 1.29-6.615-2.044-12.14-7.782-15.797-13.593-3.656-5.8-5.35-17.77-6.14-21.228-.789-3.45.674.7 1.384.507" stroke="#FFF" stroke-width="4" fill="none" stroke-linecap="round"/>
</svg>
