<svg version="1.1" xmlns="http://www.w3.org/2000/svg" viewBox="0 0 128.66408324467557 128.66408324467568" width="128.66408324467557" height="128.66408324467568">
 <g stroke-linecap="round"><g transform="translate(34.25862782021102 58.289481162844424) rotate(179.95289560558678 29.922977334309564 1.9232781918909438)"><path d="M-0.66 1.65 C2.74 2.11, 12.76 4.54, 22.95 4.35 C33.15 4.16, 54.18 0.7, 60.51 0.48 M4.17 0.07 C6.94 -0.48, 11.39 -0.78, 20.54 -0.19 C29.69 0.39, 52.15 3.83, 59.07 3.6" stroke="#fff" stroke-width="4" fill="none"></path></g></g><g stroke-linecap="round"><g transform="translate(57.88562985571093 55.88988150324661) rotate(453.5738473063139 -16.238156724967496 7.248819333378208)"><path d="M1.23 0.98 C-5.22 6.59, -6.99 9.67, -16.42 17.44 M1.31 1.11 C-5.22 6.8, -8.19 8.62, -20.5 18.16 M-21.35 17.71 C-24.85 15.76, -26.33 9.61, -33.79 -3.87 M-20.72 18.37 C-25.01 11.13, -29.9 4.12, -33.05 -0.02" stroke="#fff" stroke-width="4" fill="none"></path></g></g><g stroke-linecap="round" transform="translate(10 10) rotate(269.9528956055869 54.33204162233784 54.33204162233784)"><path d="M76.69 3.64 C84.49 6.21, 91.05 13.6, 96.48 21.07 C101.92 28.54, 107.79 39.49, 109.33 48.46 C110.86 57.43, 109 66.4, 105.68 74.88 C102.35 83.35, 96.9 93.86, 89.38 99.29 C81.86 104.71, 69.87 106.6, 60.54 107.43 C51.22 108.26, 41.9 107.9, 33.44 104.28 C24.97 100.67, 15.36 92.92, 9.74 85.74 C4.11 78.56, 0.71 69.62, -0.33 61.2 C-1.36 52.78, -0.19 43.34, 3.53 35.23 C7.25 27.13, 14.66 18.62, 22 12.59 C29.35 6.56, 35.24 -1.52, 47.59 -0.95 C59.93 -0.37, 86.78 9.75, 96.08 16.06 C105.37 22.36, 104.34 35.98, 103.37 36.88 M74.42 4.46 C82.61 6.24, 90.56 12.47, 96.15 18.96 C101.74 25.46, 106.34 34.66, 107.97 43.43 C109.61 52.2, 108.85 63.08, 105.96 71.56 C103.07 80.03, 97.44 88.47, 90.64 94.28 C83.84 100.1, 73.85 104.31, 65.14 106.47 C56.44 108.64, 46.65 110.41, 38.4 107.29 C30.16 104.17, 21.94 94.75, 15.66 87.76 C9.39 80.77, 2.57 73.39, 0.75 65.34 C-1.07 57.29, 1.64 48.28, 4.75 39.46 C7.85 30.63, 12.58 18.31, 19.37 12.39 C26.16 6.47, 36.3 5.93, 45.48 3.93 C54.67 1.94, 70.26 0.44, 74.47 0.43 C78.68 0.43, 71.33 2.57, 70.74 3.89" stroke="#fff" stroke-width="4" fill="none"></path></g></svg>