<?xml version="1.0" standalone="no"?><!DOCTYPE svg PUBLIC "-//W3C//DTD SVG 1.1//EN" "http://www.w3.org/Graphics/SVG/1.1/DTD/svg11.dtd"><svg t="1665645637130" class="icon" viewBox="0 0 1024 1024" version="1.1" xmlns="http://www.w3.org/2000/svg" p-id="1037" width="64" height="64" xmlns:xlink="http://www.w3.org/1999/xlink"><path d="M452.02208 966.96c-48.25 0-96.7-7.83-143.79-23.6-114.32-38.3-206.88-118.83-260.64-226.74C-6.17792 608.7-14.68792 486.31 23.60208 371.99 61.89208 257.66 142.43208 165.1 250.34208 111.34c169.61-84.48 371.61-44.79 540.3 106.25 11.41 10.22 13.76 27.18 5.57 40.13-48.25 76.25-136.06 208.24-171.12 260.79 43.62 39.45 148.18 133.68 209.19 185.36 11.61 9.85 14.47 26.62 6.8 39.75-44.31 75.72-109.4 136.5-188.22 175.77-63.48 31.6-131.94 47.57-200.84 47.57z m-16.86-836.29c-54.27 0-107.3 12.1-156.85 36.8-92.94 46.29-162.27 125.99-195.25 224.43s-25.64 203.84 20.66 296.76C150.00208 781.58 229.71208 850.92 328.14208 883.9c98.44 32.97 203.82 25.64 296.75-20.65 60.05-29.91 110.85-74.31 148.16-129.27-81.87-70.64-208.74-185.97-210.12-187.22-11.49-10.45-13.61-27.74-4.96-40.65 1.14-1.71 106.99-159.76 170.71-259.11-92.99-76.64-195.29-116.33-293.52-116.33z" p-id="1038" fill="#ffffff"></path><path d="M436.61208 419.57c-40.45 0-79.46-22.36-98.68-60.96-27.06-54.32-4.88-120.51 49.41-147.57 26.31-13.09 56.17-15.2 84.03-5.85 27.86 9.34 50.43 28.97 63.54 55.28 13.1 26.31 15.19 56.15 5.86 84.01-9.35 27.87-28.96 50.44-55.27 63.55-15.73 7.84-32.44 11.54-48.89 11.54z m-0.27-178.3c-10.41 0-20.76 2.42-30.35 7.19-33.68 16.78-47.43 57.83-30.66 91.51 16.78 33.68 57.9 47.38 91.5 30.66 16.33-8.13 28.49-22.12 34.29-39.4 5.78-17.29 4.49-35.79-3.63-52.1l-0.02-0.01c-8.12-16.32-22.1-28.49-39.39-34.28a68.299 68.299 0 0 0-21.74-3.57zM821.03208 483.3c-10.35 0-20.49-5.12-26.47-14.51-9.29-14.6-5-33.98 9.61-43.28L975.80208 316.19c14.57-9.3 33.96-5.02 43.29 9.6 9.29 14.6 5 33.98-9.61 43.28L837.85208 478.39a31.224 31.224 0 0 1-16.82 4.91zM986.46208 634.22c-3.27 0-6.59-0.52-9.86-1.6l-244.54-80.97c-16.43-5.44-25.35-23.18-19.9-39.62 5.43-16.44 23.21-25.33 39.62-19.9l244.54 80.97c16.43 5.44 25.35 23.18 19.9 39.62-4.35 13.16-16.62 21.5-29.76 21.5z" p-id="1039" fill="#ffffff"></path></svg>